<?xml version="1.0" encoding="UTF-8" standalone="no"?>
<!DOCTYPE svg PUBLIC "-//W3C//DTD SVG 1.1//EN"
 "http://www.w3.org/Graphics/SVG/1.1/DTD/svg11.dtd">
<!-- Generated by graphviz version 2.36.0 (20140111.2315)
 -->
<!-- Title: G Pages: 1 -->
<svg width="951pt" height="642pt"
 viewBox="0.00 0.00 951.00 642.00" xmlns="http://www.w3.org/2000/svg" xmlns:xlink="http://www.w3.org/1999/xlink">
<g id="graph0" class="graph" transform="scale(1 1) rotate(0) translate(4 638)">
<title>G</title>
<polygon fill="white" stroke="none" points="-4,4 -4,-638 947,-638 947,4 -4,4"/>
<g id="clust1" class="cluster"><title>cluster_root</title>
<g id="a_clust1"><a xlink:title="eventq_index&#61;0&#10;\full_system&#61;false&#10;\sim_quantum&#61;0&#10;\time_sync_enable&#61;false&#10;\time_sync_period&#61;100000000000&#10;\time_sync_spin_threshold&#61;100000000">
<path fill="#bab6ae" stroke="#000000" d="M20,-8C20,-8 923,-8 923,-8 929,-8 935,-14 935,-20 935,-20 935,-614 935,-614 935,-620 929,-626 923,-626 923,-626 20,-626 20,-626 14,-626 8,-620 8,-614 8,-614 8,-20 8,-20 8,-14 14,-8 20,-8"/>
<text text-anchor="middle" x="471.5" y="-610.8" font-family="Arial" font-size="14.00" fill="#000000">root </text>
<text text-anchor="middle" x="471.5" y="-595.8" font-family="Arial" font-size="14.00" fill="#000000">: Root</text>
</a>
</g>
</g>
<g id="clust2" class="cluster"><title>cluster_system</title>
<g id="a_clust2"><a xlink:title="boot_osflags&#61;a&#10;\cache_line_size&#61;64&#10;\eventq_index&#61;0&#10;\exit_on_work_items&#61;false&#10;\init_param&#61;0&#10;\kernel&#61;&#10;\kernel_addr_check&#61;true&#10;\kernel_extras&#61;&#10;\load_addr_mask&#61;18446744073709551615&#10;\load_offset&#61;0&#10;\mem_mode&#61;timing&#10;\mem_ranges&#61;0:536870911&#10;\memories&#61;system.mem_ctrls&#10;\mmap_using_noreserve&#61;false&#10;\multi_thread&#61;false&#10;\num_work_ids&#61;16&#10;\readfile&#61;&#10;\redirect_paths&#61;system.redirect_paths0 system.redirect_paths1 system.redirect_paths2 system.redirect_paths3&#10;\symbolfile&#61;&#10;\thermal_components&#61;&#10;\thermal_model&#61;Null&#10;\work_begin_ckpt_count&#61;0&#10;\work_begin_cpu_id_exit&#61;&#45;1&#10;\work_begin_exit_count&#61;0&#10;\work_cpus_ckpt_count&#61;0&#10;\work_end_ckpt_count&#61;0&#10;\work_end_exit_count&#61;0&#10;\work_item_id&#61;&#45;1">
<path fill="#e4e7eb" stroke="#000000" d="M28,-16C28,-16 915,-16 915,-16 921,-16 927,-22 927,-28 927,-28 927,-568 927,-568 927,-574 921,-580 915,-580 915,-580 28,-580 28,-580 22,-580 16,-574 16,-568 16,-568 16,-28 16,-28 16,-22 22,-16 28,-16"/>
<text text-anchor="middle" x="471.5" y="-564.8" font-family="Arial" font-size="14.00" fill="#000000">system </text>
<text text-anchor="middle" x="471.5" y="-549.8" font-family="Arial" font-size="14.00" fill="#000000">: System</text>
</a>
</g>
</g>
<g id="clust3" class="cluster"><title>cluster_system_membus</title>
<g id="a_clust3"><a xlink:title="clk_domain&#61;system.clk_domain&#10;\default_p_state&#61;UNDEFINED&#10;\eventq_index&#61;0&#10;\forward_latency&#61;4&#10;\frontend_latency&#61;3&#10;\max_outstanding_snoops&#61;512&#10;\max_routing_table_size&#61;512&#10;\p_state_clk_gate_bins&#61;20&#10;\p_state_clk_gate_max&#61;1000000000000&#10;\p_state_clk_gate_min&#61;1000&#10;\point_of_coherency&#61;true&#10;\point_of_unification&#61;true&#10;\power_model&#61;&#10;\response_latency&#61;2&#10;\snoop_filter&#61;system.membus.snoop_filter&#10;\snoop_response_latency&#61;4&#10;\system&#61;system&#10;\use_default_range&#61;false&#10;\width&#61;16">
<path fill="#6f798c" stroke="#000000" d="M109,-356C109,-356 233,-356 233,-356 239,-356 245,-362 245,-368 245,-368 245,-436 245,-436 245,-442 239,-448 233,-448 233,-448 109,-448 109,-448 103,-448 97,-442 97,-436 97,-436 97,-368 97,-368 97,-362 103,-356 109,-356"/>
<text text-anchor="middle" x="171" y="-432.8" font-family="Arial" font-size="14.00" fill="#000000">membus </text>
<text text-anchor="middle" x="171" y="-417.8" font-family="Arial" font-size="14.00" fill="#000000">: SystemXBar</text>
</a>
</g>
</g>
<g id="clust9" class="cluster"><title>cluster_system_tol2bus</title>
<g id="a_clust9"><a xlink:title="clk_domain&#61;system.cpu_clk_domain&#10;\default_p_state&#61;UNDEFINED&#10;\eventq_index&#61;0&#10;\forward_latency&#61;0&#10;\frontend_latency&#61;1&#10;\max_outstanding_snoops&#61;512&#10;\max_routing_table_size&#61;512&#10;\p_state_clk_gate_bins&#61;20&#10;\p_state_clk_gate_max&#61;1000000000000&#10;\p_state_clk_gate_min&#61;1000&#10;\point_of_coherency&#61;false&#10;\point_of_unification&#61;true&#10;\power_model&#61;&#10;\response_latency&#61;1&#10;\snoop_filter&#61;system.tol2bus.snoop_filter&#10;\snoop_response_latency&#61;1&#10;\system&#61;system&#10;\use_default_range&#61;false&#10;\width&#61;32">
<path fill="#6f798c" stroke="#000000" d="M715,-356C715,-356 839,-356 839,-356 845,-356 851,-362 851,-368 851,-368 851,-436 851,-436 851,-442 845,-448 839,-448 839,-448 715,-448 715,-448 709,-448 703,-442 703,-436 703,-436 703,-368 703,-368 703,-362 709,-356 715,-356"/>
<text text-anchor="middle" x="777" y="-432.8" font-family="Arial" font-size="14.00" fill="#000000">tol2bus </text>
<text text-anchor="middle" x="777" y="-417.8" font-family="Arial" font-size="14.00" fill="#000000">: L2XBar</text>
</a>
</g>
</g>
<g id="clust13" class="cluster"><title>cluster_system_l2</title>
<g id="a_clust13"><a xlink:title="addr_ranges&#61;0:18446744073709551615&#10;\assoc&#61;8&#10;\clk_domain&#61;system.cpu_clk_domain&#10;\clusivity&#61;mostly_incl&#10;\compressor&#61;Null&#10;\data_latency&#61;20&#10;\default_p_state&#61;UNDEFINED&#10;\demand_mshr_reserve&#61;1&#10;\eventq_index&#61;0&#10;\is_read_only&#61;false&#10;\max_miss_count&#61;0&#10;\mshrs&#61;20&#10;\p_state_clk_gate_bins&#61;20&#10;\p_state_clk_gate_max&#61;1000000000000&#10;\p_state_clk_gate_min&#61;1000&#10;\power_model&#61;&#10;\prefetch_on_access&#61;false&#10;\prefetcher&#61;Null&#10;\replacement_policy&#61;system.l2.replacement_policy&#10;\response_latency&#61;20&#10;\sequential_access&#61;false&#10;\size&#61;2097152&#10;\system&#61;system&#10;\tag_latency&#61;20&#10;\tags&#61;system.l2.tags&#10;\tgts_per_mshr&#61;12&#10;\warmup_percentage&#61;0&#10;\write_allocator&#61;Null&#10;\write_buffers&#61;8&#10;\writeback_clean&#61;false">
<path fill="#bab6ae" stroke="#000000" d="M181,-164C181,-164 349,-164 349,-164 355,-164 361,-170 361,-176 361,-176 361,-244 361,-244 361,-250 355,-256 349,-256 349,-256 181,-256 181,-256 175,-256 169,-250 169,-244 169,-244 169,-176 169,-176 169,-170 175,-164 181,-164"/>
<text text-anchor="middle" x="265" y="-240.8" font-family="Arial" font-size="14.00" fill="#000000">l2 </text>
<text text-anchor="middle" x="265" y="-225.8" font-family="Arial" font-size="14.00" fill="#000000">: L2Cache</text>
</a>
</g>
</g>
<g id="clust18" class="cluster"><title>cluster_system_mem_ctrls</title>
<g id="a_clust18"><a xlink:title="IDD0&#61;0.055&#10;\IDD02&#61;0.0&#10;\IDD2N&#61;0.032&#10;\IDD2N2&#61;0.0&#10;\IDD2P0&#61;0.0&#10;\IDD2P02&#61;0.0&#10;\IDD2P1&#61;0.032&#10;\IDD2P12&#61;0.0&#10;\IDD3N&#61;0.038&#10;\IDD3N2&#61;0.0&#10;\IDD3P0&#61;0.0&#10;\IDD3P02&#61;0.0&#10;\IDD3P1&#61;0.038&#10;\IDD3P12&#61;0.0&#10;\IDD4R&#61;0.157&#10;\IDD4R2&#61;0.0&#10;\IDD4W&#61;0.125&#10;\IDD4W2&#61;0.0&#10;\IDD5&#61;0.235&#10;\IDD52&#61;0.0&#10;\IDD6&#61;0.02&#10;\IDD62&#61;0.0&#10;\VDD&#61;1.5&#10;\VDD2&#61;0.0&#10;\activation_limit&#61;4&#10;\addr_mapping&#61;RoRaBaCoCh&#10;\bank_groups_per_rank&#61;0&#10;\banks_per_rank&#61;8&#10;\burst_length&#61;8&#10;\clk_domain&#61;system.clk_domain&#10;\conf_table_reported&#61;true&#10;\default_p_state&#61;UNDEFINED&#10;\device_bus_width&#61;8&#10;\device_rowbuffer_size&#61;1024&#10;\device_size&#61;536870912&#10;\devices_per_rank&#61;8&#10;\dll&#61;true&#10;\enable_dram_powerdown&#61;false&#10;\eventq_index&#61;0&#10;\in_addr_map&#61;true&#10;\kvm_map&#61;true&#10;\max_accesses_per_row&#61;16&#10;\mem_sched_policy&#61;frfcfs&#10;\min_writes_per_switch&#61;16&#10;\null&#61;false&#10;\p_state_clk_gate_bins&#61;20&#10;\p_state_clk_gate_max&#61;1000000000000&#10;\p_state_clk_gate_min&#61;1000&#10;\page_policy&#61;open_adaptive&#10;\power_model&#61;&#10;\qos_masters&#61; &#160;&#160;&#160;&#160;&#160;&#160;&#160;&#160;&#160;&#160;&#160;&#160;&#160;&#160;&#10;\qos_policy&#61;Null&#10;\qos_priorities&#61;1&#10;\qos_priority_escalation&#61;false&#10;\qos_q_policy&#61;fifo&#10;\qos_syncro_scheduler&#61;false&#10;\qos_turnaround_policy&#61;Null&#10;\range&#61;0:536870911&#10;\ranks_per_channel&#61;2&#10;\read_buffer_size&#61;32&#10;\static_backend_latency&#61;10000&#10;\static_frontend_latency&#61;10000&#10;\tBURST&#61;5000&#10;\tCCD_L&#61;0&#10;\tCCD_L_WR&#61;0&#10;\tCK&#61;1250&#10;\tCL&#61;13750&#10;\tCS&#61;2500&#10;\tRAS&#61;35000&#10;\tRCD&#61;13750&#10;\tREFI&#61;7800000&#10;\tRFC&#61;260000&#10;\tRP&#61;13750&#10;\tRRD&#61;6000&#10;\tRRD_L&#61;0&#10;\tRTP&#61;7500&#10;\tRTW&#61;2500&#10;\tWR&#61;15000&#10;\tWTR&#61;7500&#10;\tXAW&#61;30000&#10;\tXP&#61;6000&#10;\tXPDLL&#61;0&#10;\tXS&#61;270000&#10;\tXSDLL&#61;0&#10;\write_buffer_size&#61;64&#10;\write_high_thresh_perc&#61;85&#10;\write_low_thresh_perc&#61;50">
<path fill="#5e5958" stroke="#000000" d="M36,-164C36,-164 149,-164 149,-164 155,-164 161,-170 161,-176 161,-176 161,-244 161,-244 161,-250 155,-256 149,-256 149,-256 36,-256 36,-256 30,-256 24,-250 24,-244 24,-244 24,-176 24,-176 24,-170 30,-164 36,-164"/>
<text text-anchor="middle" x="92.5" y="-240.8" font-family="Arial" font-size="14.00" fill="#000000">mem_ctrls </text>
<text text-anchor="middle" x="92.5" y="-225.8" font-family="Arial" font-size="14.00" fill="#000000">: DDR3_1600_8x8</text>
</a>
</g>
</g>
<g id="clust21" class="cluster"><title>cluster_system_cpu</title>
<g id="a_clust21"><a xlink:title="branchPred&#61;system.cpu.branchPred&#10;\checker&#61;Null&#10;\clk_domain&#61;system.cpu_clk_domain&#10;\cpu_id&#61;0&#10;\decodeCycleInput&#61;true&#10;\decodeInputBufferSize&#61;3&#10;\decodeInputWidth&#61;2&#10;\decodeToExecuteForwardDelay&#61;1&#10;\default_p_state&#61;UNDEFINED&#10;\do_checkpoint_insts&#61;true&#10;\do_quiesce&#61;true&#10;\do_statistics_insts&#61;true&#10;\dtb&#61;system.cpu.dtb&#10;\enableIdling&#61;true&#10;\eventq_index&#61;0&#10;\executeAllowEarlyMemoryIssue&#61;true&#10;\executeBranchDelay&#61;1&#10;\executeCommitLimit&#61;2&#10;\executeCycleInput&#61;true&#10;\executeFuncUnits&#61;system.cpu.executeFuncUnits&#10;\executeInputBufferSize&#61;7&#10;\executeInputWidth&#61;2&#10;\executeIssueLimit&#61;2&#10;\executeLSQMaxStoreBufferStoresPerCycle&#61;2&#10;\executeLSQRequestsQueueSize&#61;1&#10;\executeLSQStoreBufferSize&#61;5&#10;\executeLSQTransfersQueueSize&#61;2&#10;\executeMaxAccessesInMemory&#61;2&#10;\executeMemoryCommitLimit&#61;1&#10;\executeMemoryIssueLimit&#61;1&#10;\executeMemoryWidth&#61;0&#10;\executeSetTraceTimeOnCommit&#61;true&#10;\executeSetTraceTimeOnIssue&#61;false&#10;\fetch1FetchLimit&#61;1&#10;\fetch1LineSnapWidth&#61;0&#10;\fetch1LineWidth&#61;0&#10;\fetch1ToFetch2BackwardDelay&#61;1&#10;\fetch1ToFetch2ForwardDelay&#61;1&#10;\fetch2CycleInput&#61;true&#10;\fetch2InputBufferSize&#61;2&#10;\fetch2ToDecodeForwardDelay&#61;1&#10;\function_trace&#61;false&#10;\function_trace_start&#61;0&#10;\interrupts&#61;system.cpu.interrupts&#10;\isa&#61;system.cpu.isa&#10;\itb&#61;system.cpu.itb&#10;\max_insts_all_threads&#61;0&#10;\max_insts_any_thread&#61;100000&#10;\numThreads&#61;1&#10;\p_state_clk_gate_bins&#61;20&#10;\p_state_clk_gate_max&#61;1000000000000&#10;\p_state_clk_gate_min&#61;1000&#10;\power_gating_on_idle&#61;false&#10;\power_model&#61;&#10;\profile&#61;0&#10;\progress_interval&#61;0&#10;\pwr_gating_latency&#61;300&#10;\simpoint_start_insts&#61;&#10;\socket_id&#61;0&#10;\switched_out&#61;false&#10;\syscallRetryLatency&#61;10000&#10;\system&#61;system&#10;\threadPolicy&#61;RoundRobin&#10;\tracer&#61;system.cpu.tracer&#10;\wait_for_remote_gdb&#61;false&#10;\workload&#61;system.cpu.workload">
<path fill="#bbc6d9" stroke="#000000" d="M381,-24C381,-24 885,-24 885,-24 891,-24 897,-30 897,-36 897,-36 897,-336 897,-336 897,-342 891,-348 885,-348 885,-348 381,-348 381,-348 375,-348 369,-342 369,-336 369,-336 369,-36 369,-36 369,-30 375,-24 381,-24"/>
<text text-anchor="middle" x="633" y="-332.8" font-family="Arial" font-size="14.00" fill="#000000">cpu </text>
<text text-anchor="middle" x="633" y="-317.8" font-family="Arial" font-size="14.00" fill="#000000">: MinorCPU</text>
</a>
</g>
</g>
<g id="clust23" class="cluster"><title>cluster_system_cpu_dtb</title>
<g id="a_clust23"><a xlink:title="eventq_index&#61;0&#10;\is_stage2&#61;false&#10;\size&#61;64&#10;\sys&#61;system&#10;\walker&#61;system.cpu.dtb.walker">
<path fill="#bab6ae" stroke="#000000" d="M756,-156C756,-156 877,-156 877,-156 883,-156 889,-162 889,-168 889,-168 889,-290 889,-290 889,-296 883,-302 877,-302 877,-302 756,-302 756,-302 750,-302 744,-296 744,-290 744,-290 744,-168 744,-168 744,-162 750,-156 756,-156"/>
<text text-anchor="middle" x="816.5" y="-286.8" font-family="Arial" font-size="14.00" fill="#000000">dtb </text>
<text text-anchor="middle" x="816.5" y="-271.8" font-family="Arial" font-size="14.00" fill="#000000">: ArmDTB</text>
</a>
</g>
</g>
<g id="clust24" class="cluster"><title>cluster_system_cpu_dtb_walker</title>
<g id="a_clust24"><a xlink:title="clk_domain&#61;system.cpu_clk_domain&#10;\default_p_state&#61;UNDEFINED&#10;\eventq_index&#61;0&#10;\is_stage2&#61;false&#10;\num_squash_per_cycle&#61;2&#10;\p_state_clk_gate_bins&#61;20&#10;\p_state_clk_gate_max&#61;1000000000000&#10;\p_state_clk_gate_min&#61;1000&#10;\power_model&#61;&#10;\sys&#61;system">
<path fill="#9f9c95" stroke="#000000" d="M764,-164C764,-164 869,-164 869,-164 875,-164 881,-170 881,-176 881,-176 881,-244 881,-244 881,-250 875,-256 869,-256 869,-256 764,-256 764,-256 758,-256 752,-250 752,-244 752,-244 752,-176 752,-176 752,-170 758,-164 764,-164"/>
<text text-anchor="middle" x="816.5" y="-240.8" font-family="Arial" font-size="14.00" fill="#000000">walker </text>
<text text-anchor="middle" x="816.5" y="-225.8" font-family="Arial" font-size="14.00" fill="#000000">: ArmTableWalker</text>
</a>
</g>
</g>
<g id="clust111" class="cluster"><title>cluster_system_cpu_icache</title>
<g id="a_clust111"><a xlink:title="addr_ranges&#61;0:18446744073709551615&#10;\assoc&#61;2&#10;\clk_domain&#61;system.cpu_clk_domain&#10;\clusivity&#61;mostly_incl&#10;\compressor&#61;Null&#10;\data_latency&#61;2&#10;\default_p_state&#61;UNDEFINED&#10;\demand_mshr_reserve&#61;1&#10;\eventq_index&#61;0&#10;\is_read_only&#61;true&#10;\max_miss_count&#61;0&#10;\mshrs&#61;4&#10;\p_state_clk_gate_bins&#61;20&#10;\p_state_clk_gate_max&#61;1000000000000&#10;\p_state_clk_gate_min&#61;1000&#10;\power_model&#61;&#10;\prefetch_on_access&#61;false&#10;\prefetcher&#61;Null&#10;\replacement_policy&#61;system.cpu.icache.replacement_policy&#10;\response_latency&#61;2&#10;\sequential_access&#61;false&#10;\size&#61;32768&#10;\system&#61;system&#10;\tag_latency&#61;2&#10;\tags&#61;system.cpu.icache.tags&#10;\tgts_per_mshr&#61;20&#10;\warmup_percentage&#61;0&#10;\write_allocator&#61;Null&#10;\write_buffers&#61;8&#10;\writeback_clean&#61;true">
<path fill="#bab6ae" stroke="#000000" d="M420,-32C420,-32 588,-32 588,-32 594,-32 600,-38 600,-44 600,-44 600,-112 600,-112 600,-118 594,-124 588,-124 588,-124 420,-124 420,-124 414,-124 408,-118 408,-112 408,-112 408,-44 408,-44 408,-38 414,-32 420,-32"/>
<text text-anchor="middle" x="504" y="-108.8" font-family="Arial" font-size="14.00" fill="#000000">icache </text>
<text text-anchor="middle" x="504" y="-93.8" font-family="Arial" font-size="14.00" fill="#000000">: L1_ICache</text>
</a>
</g>
</g>
<g id="clust115" class="cluster"><title>cluster_system_cpu_dcache</title>
<g id="a_clust115"><a xlink:title="addr_ranges&#61;0:18446744073709551615&#10;\assoc&#61;2&#10;\clk_domain&#61;system.cpu_clk_domain&#10;\clusivity&#61;mostly_incl&#10;\compressor&#61;Null&#10;\data_latency&#61;2&#10;\default_p_state&#61;UNDEFINED&#10;\demand_mshr_reserve&#61;1&#10;\eventq_index&#61;0&#10;\is_read_only&#61;false&#10;\max_miss_count&#61;0&#10;\mshrs&#61;4&#10;\p_state_clk_gate_bins&#61;20&#10;\p_state_clk_gate_max&#61;1000000000000&#10;\p_state_clk_gate_min&#61;1000&#10;\power_model&#61;&#10;\prefetch_on_access&#61;false&#10;\prefetcher&#61;Null&#10;\replacement_policy&#61;system.cpu.dcache.replacement_policy&#10;\response_latency&#61;2&#10;\sequential_access&#61;false&#10;\size&#61;65536&#10;\system&#61;system&#10;\tag_latency&#61;2&#10;\tags&#61;system.cpu.dcache.tags&#10;\tgts_per_mshr&#61;20&#10;\warmup_percentage&#61;0&#10;\write_allocator&#61;Null&#10;\write_buffers&#61;8&#10;\writeback_clean&#61;false">
<path fill="#bab6ae" stroke="#000000" d="M679,-32C679,-32 847,-32 847,-32 853,-32 859,-38 859,-44 859,-44 859,-112 859,-112 859,-118 853,-124 847,-124 847,-124 679,-124 679,-124 673,-124 667,-118 667,-112 667,-112 667,-44 667,-44 667,-38 673,-32 679,-32"/>
<text text-anchor="middle" x="763" y="-108.8" font-family="Arial" font-size="14.00" fill="#000000">dcache </text>
<text text-anchor="middle" x="763" y="-93.8" font-family="Arial" font-size="14.00" fill="#000000">: L1_DCache</text>
</a>
</g>
</g>
<g id="clust123" class="cluster"><title>cluster_system_cpu_itb</title>
<g id="a_clust123"><a xlink:title="eventq_index&#61;0&#10;\is_stage2&#61;false&#10;\size&#61;64&#10;\sys&#61;system&#10;\walker&#61;system.cpu.itb.walker">
<path fill="#bab6ae" stroke="#000000" d="M603,-156C603,-156 724,-156 724,-156 730,-156 736,-162 736,-168 736,-168 736,-290 736,-290 736,-296 730,-302 724,-302 724,-302 603,-302 603,-302 597,-302 591,-296 591,-290 591,-290 591,-168 591,-168 591,-162 597,-156 603,-156"/>
<text text-anchor="middle" x="663.5" y="-286.8" font-family="Arial" font-size="14.00" fill="#000000">itb </text>
<text text-anchor="middle" x="663.5" y="-271.8" font-family="Arial" font-size="14.00" fill="#000000">: ArmITB</text>
</a>
</g>
</g>
<g id="clust124" class="cluster"><title>cluster_system_cpu_itb_walker</title>
<g id="a_clust124"><a xlink:title="clk_domain&#61;system.cpu_clk_domain&#10;\default_p_state&#61;UNDEFINED&#10;\eventq_index&#61;0&#10;\is_stage2&#61;false&#10;\num_squash_per_cycle&#61;2&#10;\p_state_clk_gate_bins&#61;20&#10;\p_state_clk_gate_max&#61;1000000000000&#10;\p_state_clk_gate_min&#61;1000&#10;\power_model&#61;&#10;\sys&#61;system">
<path fill="#9f9c95" stroke="#000000" d="M611,-164C611,-164 716,-164 716,-164 722,-164 728,-170 728,-176 728,-176 728,-244 728,-244 728,-250 722,-256 716,-256 716,-256 611,-256 611,-256 605,-256 599,-250 599,-244 599,-244 599,-176 599,-176 599,-170 605,-164 611,-164"/>
<text text-anchor="middle" x="663.5" y="-240.8" font-family="Arial" font-size="14.00" fill="#000000">walker </text>
<text text-anchor="middle" x="663.5" y="-225.8" font-family="Arial" font-size="14.00" fill="#000000">: ArmTableWalker</text>
</a>
</g>
</g>
<!-- system_system_port -->
<g id="node1" class="node"><title>system_system_port</title>
<path fill="#b6b8bc" stroke="#000000" d="M174.5,-497C174.5,-497 245.5,-497 245.5,-497 251.5,-497 257.5,-503 257.5,-509 257.5,-509 257.5,-521 257.5,-521 257.5,-527 251.5,-533 245.5,-533 245.5,-533 174.5,-533 174.5,-533 168.5,-533 162.5,-527 162.5,-521 162.5,-521 162.5,-509 162.5,-509 162.5,-503 168.5,-497 174.5,-497"/>
<text text-anchor="middle" x="210" y="-511.3" font-family="Arial" font-size="14.00" fill="#000000">system_port</text>
</g>
<!-- system_membus_slave -->
<g id="node3" class="node"><title>system_membus_slave</title>
<path fill="#586070" stroke="#000000" d="M195,-365C195,-365 225,-365 225,-365 231,-365 237,-371 237,-377 237,-377 237,-389 237,-389 237,-395 231,-401 225,-401 225,-401 195,-401 195,-401 189,-401 183,-395 183,-389 183,-389 183,-377 183,-377 183,-371 189,-365 195,-365"/>
<text text-anchor="middle" x="210" y="-379.3" font-family="Arial" font-size="14.00" fill="#000000">slave</text>
</g>
<!-- system_system_port&#45;&gt;system_membus_slave -->
<g id="edge1" class="edge"><title>system_system_port&#45;&gt;system_membus_slave</title>
<path fill="none" stroke="black" d="M210,-496.737C210,-474.981 210,-437.322 210,-411.564"/>
<polygon fill="black" stroke="black" points="213.5,-411.334 210,-401.334 206.5,-411.334 213.5,-411.334"/>
</g>
<!-- system_membus_master -->
<g id="node2" class="node"><title>system_membus_master</title>
<path fill="#586070" stroke="#000000" d="M117,-365C117,-365 153,-365 153,-365 159,-365 165,-371 165,-377 165,-377 165,-389 165,-389 165,-395 159,-401 153,-401 153,-401 117,-401 117,-401 111,-401 105,-395 105,-389 105,-389 105,-377 105,-377 105,-371 111,-365 117,-365"/>
<text text-anchor="middle" x="135" y="-379.3" font-family="Arial" font-size="14.00" fill="#000000">master</text>
</g>
<!-- system_mem_ctrls_port -->
<g id="node8" class="node"><title>system_mem_ctrls_port</title>
<path fill="#4b4746" stroke="#000000" d="M111,-173C111,-173 141,-173 141,-173 147,-173 153,-179 153,-185 153,-185 153,-197 153,-197 153,-203 147,-209 141,-209 141,-209 111,-209 111,-209 105,-209 99,-203 99,-197 99,-197 99,-185 99,-185 99,-179 105,-173 111,-173"/>
<text text-anchor="middle" x="126" y="-187.3" font-family="Arial" font-size="14.00" fill="#000000">port</text>
</g>
<!-- system_membus_master&#45;&gt;system_mem_ctrls_port -->
<g id="edge2" class="edge"><title>system_membus_master&#45;&gt;system_mem_ctrls_port</title>
<path fill="none" stroke="black" d="M134.185,-364.804C132.616,-331.668 129.162,-258.746 127.281,-219.046"/>
<polygon fill="black" stroke="black" points="130.776,-218.844 126.806,-209.021 123.783,-219.175 130.776,-218.844"/>
</g>
<!-- system_l2_mem_side -->
<g id="node6" class="node"><title>system_l2_mem_side</title>
<path fill="#94918b" stroke="#000000" d="M189,-173C189,-173 249,-173 249,-173 255,-173 261,-179 261,-185 261,-185 261,-197 261,-197 261,-203 255,-209 249,-209 249,-209 189,-209 189,-209 183,-209 177,-203 177,-197 177,-197 177,-185 177,-185 177,-179 183,-173 189,-173"/>
<text text-anchor="middle" x="219" y="-187.3" font-family="Arial" font-size="14.00" fill="#000000">mem_side</text>
</g>
<!-- system_membus_slave&#45;&gt;system_l2_mem_side -->
<g id="edge3" class="edge"><title>system_membus_slave&#45;&gt;system_l2_mem_side</title>
<path fill="none" stroke="black" d="M211.291,-354.742C213.177,-314.925 216.631,-242.015 218.194,-209.021"/>
<polygon fill="black" stroke="black" points="207.792,-354.649 210.815,-364.804 214.784,-354.98 207.792,-354.649"/>
</g>
<!-- system_tol2bus_master -->
<g id="node4" class="node"><title>system_tol2bus_master</title>
<path fill="#586070" stroke="#000000" d="M723,-365C723,-365 759,-365 759,-365 765,-365 771,-371 771,-377 771,-377 771,-389 771,-389 771,-395 765,-401 759,-401 759,-401 723,-401 723,-401 717,-401 711,-395 711,-389 711,-389 711,-377 711,-377 711,-371 717,-365 723,-365"/>
<text text-anchor="middle" x="741" y="-379.3" font-family="Arial" font-size="14.00" fill="#000000">master</text>
</g>
<!-- system_l2_cpu_side -->
<g id="node7" class="node"><title>system_l2_cpu_side</title>
<path fill="#94918b" stroke="#000000" d="M290.5,-173C290.5,-173 341.5,-173 341.5,-173 347.5,-173 353.5,-179 353.5,-185 353.5,-185 353.5,-197 353.5,-197 353.5,-203 347.5,-209 341.5,-209 341.5,-209 290.5,-209 290.5,-209 284.5,-209 278.5,-203 278.5,-197 278.5,-197 278.5,-185 278.5,-185 278.5,-179 284.5,-173 290.5,-173"/>
<text text-anchor="middle" x="316" y="-187.3" font-family="Arial" font-size="14.00" fill="#000000">cpu_side</text>
</g>
<!-- system_tol2bus_master&#45;&gt;system_l2_cpu_side -->
<g id="edge4" class="edge"><title>system_tol2bus_master&#45;&gt;system_l2_cpu_side</title>
<path fill="none" stroke="black" d="M710.936,-381.174C626.522,-378.596 391.729,-369.541 365,-348 326.239,-316.763 317.589,-255.122 315.985,-219.387"/>
<polygon fill="black" stroke="black" points="319.478,-219.085 315.688,-209.191 312.481,-219.289 319.478,-219.085"/>
</g>
<!-- system_tol2bus_slave -->
<g id="node5" class="node"><title>system_tol2bus_slave</title>
<path fill="#586070" stroke="#000000" d="M801,-365C801,-365 831,-365 831,-365 837,-365 843,-371 843,-377 843,-377 843,-389 843,-389 843,-395 837,-401 831,-401 831,-401 801,-401 801,-401 795,-401 789,-395 789,-389 789,-389 789,-377 789,-377 789,-371 795,-365 801,-365"/>
<text text-anchor="middle" x="816" y="-379.3" font-family="Arial" font-size="14.00" fill="#000000">slave</text>
</g>
<!-- system_cpu_dtb_walker_port -->
<g id="node11" class="node"><title>system_cpu_dtb_walker_port</title>
<path fill="#7f7c77" stroke="#000000" d="M801,-173C801,-173 831,-173 831,-173 837,-173 843,-179 843,-185 843,-185 843,-197 843,-197 843,-203 837,-209 831,-209 831,-209 801,-209 801,-209 795,-209 789,-203 789,-197 789,-197 789,-185 789,-185 789,-179 795,-173 801,-173"/>
<text text-anchor="middle" x="816" y="-187.3" font-family="Arial" font-size="14.00" fill="#000000">port</text>
</g>
<!-- system_tol2bus_slave&#45;&gt;system_cpu_dtb_walker_port -->
<g id="edge8" class="edge"><title>system_tol2bus_slave&#45;&gt;system_cpu_dtb_walker_port</title>
<path fill="none" stroke="black" d="M816,-354.742C816,-314.925 816,-242.015 816,-209.021"/>
<polygon fill="black" stroke="black" points="812.5,-354.804 816,-364.804 819.5,-354.804 812.5,-354.804"/>
</g>
<!-- system_cpu_icache_mem_side -->
<g id="node12" class="node"><title>system_cpu_icache_mem_side</title>
<path fill="#94918b" stroke="#000000" d="M520,-41C520,-41 580,-41 580,-41 586,-41 592,-47 592,-53 592,-53 592,-65 592,-65 592,-71 586,-77 580,-77 580,-77 520,-77 520,-77 514,-77 508,-71 508,-65 508,-65 508,-53 508,-53 508,-47 514,-41 520,-41"/>
<text text-anchor="middle" x="550" y="-55.3" font-family="Arial" font-size="14.00" fill="#000000">mem_side</text>
</g>
<!-- system_tol2bus_slave&#45;&gt;system_cpu_icache_mem_side -->
<g id="edge5" class="edge"><title>system_tol2bus_slave&#45;&gt;system_cpu_icache_mem_side</title>
<path fill="none" stroke="black" d="M852.478,-372.687C865,-367.555 877.693,-359.747 885,-348 896.268,-329.885 898.967,-172.125 885,-156 852.366,-118.325 710.166,-140.116 663,-124 630.144,-112.774 595.926,-91.894 573.874,-77.0375"/>
<polygon fill="black" stroke="black" points="851.237,-369.414 843.027,-376.112 853.621,-375.996 851.237,-369.414"/>
</g>
<!-- system_cpu_dcache_mem_side -->
<g id="node14" class="node"><title>system_cpu_dcache_mem_side</title>
<path fill="#94918b" stroke="#000000" d="M779,-41C779,-41 839,-41 839,-41 845,-41 851,-47 851,-53 851,-53 851,-65 851,-65 851,-71 845,-77 839,-77 839,-77 779,-77 779,-77 773,-77 767,-71 767,-65 767,-65 767,-53 767,-53 767,-47 773,-41 779,-41"/>
<text text-anchor="middle" x="809" y="-55.3" font-family="Arial" font-size="14.00" fill="#000000">mem_side</text>
</g>
<!-- system_tol2bus_slave&#45;&gt;system_cpu_dcache_mem_side -->
<g id="edge6" class="edge"><title>system_tol2bus_slave&#45;&gt;system_cpu_dcache_mem_side</title>
<path fill="none" stroke="black" d="M853.232,-377.272C871.447,-372.874 891.812,-364.385 903,-348 951.121,-277.529 935.24,-235.008 903,-156 889.252,-122.309 857.353,-94.0301 834.531,-77.0785"/>
<polygon fill="black" stroke="black" points="852.482,-373.853 843.406,-379.319 853.91,-380.706 852.482,-373.853"/>
</g>
<!-- system_cpu_itb_walker_port -->
<g id="node16" class="node"><title>system_cpu_itb_walker_port</title>
<path fill="#7f7c77" stroke="#000000" d="M678,-173C678,-173 708,-173 708,-173 714,-173 720,-179 720,-185 720,-185 720,-197 720,-197 720,-203 714,-209 708,-209 708,-209 678,-209 678,-209 672,-209 666,-203 666,-197 666,-197 666,-185 666,-185 666,-179 672,-173 678,-173"/>
<text text-anchor="middle" x="693" y="-187.3" font-family="Arial" font-size="14.00" fill="#000000">port</text>
</g>
<!-- system_tol2bus_slave&#45;&gt;system_cpu_itb_walker_port -->
<g id="edge7" class="edge"><title>system_tol2bus_slave&#45;&gt;system_cpu_itb_walker_port</title>
<path fill="none" stroke="black" d="M785.908,-359.581C783.623,-358.277 781.308,-357.065 779,-356 766.081,-350.035 758.487,-357.618 748,-348 707.365,-310.732 696.745,-241.616 693.975,-209.387"/>
<polygon fill="black" stroke="black" points="784.153,-362.612 794.485,-364.954 787.869,-356.679 784.153,-362.612"/>
</g>
<!-- system_cpu_icache_port -->
<g id="node9" class="node"><title>system_cpu_icache_port</title>
<path fill="#959ead" stroke="#000000" d="M389.5,-173C389.5,-173 456.5,-173 456.5,-173 462.5,-173 468.5,-179 468.5,-185 468.5,-185 468.5,-197 468.5,-197 468.5,-203 462.5,-209 456.5,-209 456.5,-209 389.5,-209 389.5,-209 383.5,-209 377.5,-203 377.5,-197 377.5,-197 377.5,-185 377.5,-185 377.5,-179 383.5,-173 389.5,-173"/>
<text text-anchor="middle" x="423" y="-187.3" font-family="Arial" font-size="14.00" fill="#000000">icache_port</text>
</g>
<!-- system_cpu_icache_cpu_side -->
<g id="node13" class="node"><title>system_cpu_icache_cpu_side</title>
<path fill="#94918b" stroke="#000000" d="M427.5,-41C427.5,-41 478.5,-41 478.5,-41 484.5,-41 490.5,-47 490.5,-53 490.5,-53 490.5,-65 490.5,-65 490.5,-71 484.5,-77 478.5,-77 478.5,-77 427.5,-77 427.5,-77 421.5,-77 415.5,-71 415.5,-65 415.5,-65 415.5,-53 415.5,-53 415.5,-47 421.5,-41 427.5,-41"/>
<text text-anchor="middle" x="453" y="-55.3" font-family="Arial" font-size="14.00" fill="#000000">cpu_side</text>
</g>
<!-- system_cpu_icache_port&#45;&gt;system_cpu_icache_cpu_side -->
<g id="edge9" class="edge"><title>system_cpu_icache_port&#45;&gt;system_cpu_icache_cpu_side</title>
<path fill="none" stroke="black" d="M426.984,-172.737C432.027,-150.884 440.772,-112.986 446.719,-87.2198"/>
<polygon fill="black" stroke="black" points="450.161,-87.8653 449,-77.3344 443.341,-86.2913 450.161,-87.8653"/>
</g>
<!-- system_cpu_dcache_port -->
<g id="node10" class="node"><title>system_cpu_dcache_port</title>
<path fill="#959ead" stroke="#000000" d="M499,-173C499,-173 571,-173 571,-173 577,-173 583,-179 583,-185 583,-185 583,-197 583,-197 583,-203 577,-209 571,-209 571,-209 499,-209 499,-209 493,-209 487,-203 487,-197 487,-197 487,-185 487,-185 487,-179 493,-173 499,-173"/>
<text text-anchor="middle" x="535" y="-187.3" font-family="Arial" font-size="14.00" fill="#000000">dcache_port</text>
</g>
<!-- system_cpu_dcache_cpu_side -->
<g id="node15" class="node"><title>system_cpu_dcache_cpu_side</title>
<path fill="#94918b" stroke="#000000" d="M686.5,-41C686.5,-41 737.5,-41 737.5,-41 743.5,-41 749.5,-47 749.5,-53 749.5,-53 749.5,-65 749.5,-65 749.5,-71 743.5,-77 737.5,-77 737.5,-77 686.5,-77 686.5,-77 680.5,-77 674.5,-71 674.5,-65 674.5,-65 674.5,-53 674.5,-53 674.5,-47 680.5,-41 686.5,-41"/>
<text text-anchor="middle" x="712" y="-55.3" font-family="Arial" font-size="14.00" fill="#000000">cpu_side</text>
</g>
<!-- system_cpu_dcache_port&#45;&gt;system_cpu_dcache_cpu_side -->
<g id="edge10" class="edge"><title>system_cpu_dcache_port&#45;&gt;system_cpu_dcache_cpu_side</title>
<path fill="none" stroke="black" d="M558.504,-172.737C589.8,-149.752 645.262,-109.016 680.253,-83.3171"/>
<polygon fill="black" stroke="black" points="682.693,-85.8678 688.68,-77.1273 678.549,-80.226 682.693,-85.8678"/>
</g>
</g>
</svg>
